<svg width="372" height="444" viewBox="0 0 372 444" fill="none" xmlns="http://www.w3.org/2000/svg">
<path d="M305.406 282.07H340.577L348.046 232.808H312.874L305.406 282.07Z" fill="white"/>
<path d="M354.594 104.962C354.594 78.4367 345.213 55.8107 326.45 37.0477C307.687 18.248 285.061 8.86646 258.535 8.86646C232.01 8.86646 209.384 18.248 190.584 37.0477C171.821 55.8107 162.439 78.4367 162.439 104.962C162.439 131.488 171.821 154.151 190.584 172.914C209.347 191.677 232.01 201.058 258.535 201.058C285.061 201.058 307.724 191.677 326.487 172.914C345.213 154.151 354.594 131.525 354.594 104.962Z" fill="white"/>
<path d="M101.699 262.313C95.5548 255.103 87.7921 251.092 78.337 250.32C68.9555 249.584 60.6777 252.27 53.43 258.414C46.2192 264.558 42.209 272.32 41.4364 281.739L19.252 498.139H63.8416L118.401 287.22C113.766 278.354 108.174 270.003 101.699 262.313Z" fill="#9A006D"/>
<path d="M109.463 116.146L79.1843 113.645L77.124 125.896L104.974 135.424L109.463 116.146ZM93.79 119.089L103.907 120.193L101.7 129.795L92.3551 126.411L93.79 119.089Z" fill="#F2F2F2"/>
<path d="M116.819 97.1257C116.046 96.3531 115.016 95.9484 113.949 95.9484C112.846 95.9484 111.815 96.3899 111.08 97.1992C110.307 97.9351 109.866 98.9652 109.902 100.032C109.939 101.099 110.381 102.129 111.153 102.902L120.13 111.695L114.17 110.407C113.508 110.26 112.809 110.297 112.147 110.48C111.521 110.701 110.932 111.032 110.454 111.511L100.778 121.186C100.043 121.959 99.6379 123.026 99.6747 124.093C99.6747 125.16 100.079 126.153 100.852 126.926C101.625 127.698 102.655 128.14 103.758 128.103C104.825 128.103 105.819 127.662 106.554 126.926L114.648 118.869L120.535 120.12L122.19 129.427L118.548 135.866L109.167 132.187C108.173 131.745 107.069 131.782 106.113 132.26C105.12 132.665 104.347 133.474 103.979 134.468C103.538 135.461 103.574 136.602 104.016 137.595C104.457 138.551 105.23 139.324 106.223 139.729L119.431 144.879C119.615 144.879 119.762 144.916 119.946 144.953L130.063 144.99C139.15 142.893 143.749 137.19 143.786 127.845L141.174 95.1022C141.1 94.0353 140.585 93.042 139.739 92.3429C138.967 91.6071 137.9 91.276 136.833 91.3864C135.729 91.3864 134.736 91.9015 134.073 92.7844C133.374 93.5938 133.007 94.6607 133.117 95.7276L134.11 107.905L127.414 93.4099C126.973 92.4165 126.164 91.6439 125.133 91.276C124.14 90.8713 123 90.9081 122.006 91.3864C121.013 91.8279 120.277 92.6741 119.872 93.6674C119.468 94.6607 119.505 95.8012 119.983 96.7578L122.852 103.012L116.819 97.1257Z" fill="#FF9966"/>
<path d="M68.6237 136.638L76.1657 94.4399L38.419 91.6807L20.5022 134.836L68.6237 136.638Z" fill="#FF9966"/>
<path d="M66.9316 28.2175H66.8581C65.5704 26.8195 63.8045 26.0101 61.9282 25.9733C59.9783 25.8997 58.1388 26.6723 56.7775 28.1071L42.3558 41.9402C40.9946 43.2647 40.1852 45.1042 40.1852 47.0173C40.0748 48.9304 40.8106 50.8067 42.2086 52.1679C43.5699 53.5659 45.4094 54.3385 47.3593 54.3753C49.2723 54.4121 51.0751 53.6763 52.4363 52.3151L54.6437 50.1444C53.9815 51.2482 53.6136 52.5358 53.54 53.8603C53.4664 55.7733 54.2022 57.6496 55.6003 58.9741H55.637C56.9615 60.4089 58.8378 61.2551 60.7877 61.3287C62.664 61.3287 64.4667 60.5929 65.7911 59.2316L80.1761 45.2882C81.5741 43.9637 82.3835 42.1242 82.3835 40.1743C82.4571 38.2612 81.7213 36.3849 80.3601 35.0605L80.2865 35.1341C79.0356 33.6625 77.2329 32.8531 75.3198 32.8531C73.4435 32.7795 71.604 33.5153 70.2795 34.8398L67.7778 37.3415C68.624 36.1642 69.0287 34.7662 68.9551 33.3314C69.0287 31.4183 68.2929 29.5788 66.9316 28.2175Z" fill="#450063"/>
<path d="M92.0601 74.8315C91.9497 72.9552 91.0299 71.2628 89.5583 70.1223L82.421 64.3831L35.6975 93.4473L37.6842 101.1C39.4501 107.538 43.2027 112.505 48.9788 115.963C52.4738 118.023 56.4104 119.164 60.4573 119.348L59.6479 107.575L82.3842 105.809L82.7153 110.592C84.003 109.304 85.1067 107.832 86.0265 106.213C89.4479 100.511 90.2941 94.4038 88.5282 87.892L87.1302 82.5574L87.5717 82.4102L90.2573 80.5339V80.4972C90.3309 80.4236 90.3677 80.3868 90.3309 80.3868C90.3677 80.3868 90.3677 80.3868 90.4045 80.35C90.4045 80.2764 90.4413 80.2396 90.4781 80.2396L90.5149 80.166C91.7657 78.6576 92.3176 76.7446 92.0601 74.8315Z" fill="#FF9966"/>
<path d="M82.3094 64.2349L81.316 60.6294C79.6605 54.1912 75.9815 49.2613 70.2054 45.8398C64.3558 42.4551 58.2486 41.6457 51.8103 43.3748L47.9474 44.3314C41.3619 46.0605 36.4321 49.8131 33.1209 55.6628C29.7362 61.3652 28.8901 67.4724 30.6192 73.9475L35.6963 93.4463L82.4198 64.382L82.3094 64.2349Z" fill="#E68353"/>
<path d="M67.8878 114.159C70.6838 115.778 74.0317 116.146 77.0853 115.153L83.5236 113.313C86.6508 112.467 89.2629 110.37 90.7713 107.5C92.39 104.778 92.7947 101.504 91.875 98.4868L87.129 82.3727L67.5567 87.5601L63.6201 76.0815L54.9009 81.4897L62.2589 106.838C63.0683 109.929 65.1285 112.577 67.8878 114.159Z" fill="#9B006D"/>
<path d="M63.6199 26.9668C63.4727 26.93 63.2888 26.8196 63.1784 26.7092L39.8167 40.947C33.4152 44.5157 28.5221 49.188 25.1742 54.9641C21.7527 60.7401 20.9065 66.8473 22.6725 73.2856L23.6658 77.1118C25.211 82.9982 28.3749 87.5602 33.1944 90.7977C33.7831 91.2024 34.3717 91.5703 34.9604 91.9014L35.4386 92.1957L44.3787 78.3994L54.6063 80.5332L54.8639 81.453L63.5831 76.0448L55.9308 51.5058L64.3189 42.0139L63.6199 26.9668Z" fill="#450063"/>
<path d="M53.7964 84.3598C54.2379 83.5504 54.4954 82.6307 54.6058 81.7109L45.8865 87.1191C47.2477 87.7445 48.7561 87.7813 50.1541 87.2663C51.7361 86.8616 53.0606 85.7946 53.7964 84.3598Z" fill="#FF9966"/>
<path d="M39.1923 73.2115L42.3195 83.2184C42.7609 84.8004 43.8279 86.088 45.2995 86.8238C45.4834 86.971 45.7041 87.0446 45.9249 87.1549L54.6441 81.71C54.6809 80.9742 54.5705 80.2384 54.3498 79.5026L51.2962 69.4221C50.7444 67.8401 49.6039 66.5524 48.0955 65.7798C46.6239 65.0073 44.858 64.8601 43.276 65.3752C41.694 65.8902 40.3328 66.9939 39.5234 68.4655C38.7508 69.9739 38.6405 71.6663 39.1923 73.2115Z" fill="#E68353"/>
<path d="M35.8075 271.032L34.5566 282.842L125.575 290.973L129.402 274.491L35.8075 271.032ZM94.3774 180.308L69.5441 137.337L91.5078 113.018L6.78004 112.982L13.2919 136.159C3.65288 145.173 -0.541213 156.872 0.746442 171.331L94.3774 180.308Z" fill="#999999"/>
<path d="M134.847 250.468L94.378 180.272L0.74707 171.332C5.05152 208.784 16.7508 242.006 35.8081 271.033L129.402 274.528L134.847 250.468Z" fill="#00CBBD"/>
<path d="M69.9485 256.06L76.4235 258.929L97.1364 211.911L90.6614 209.042L69.9485 256.06Z" fill="#999999"/>
<path d="M105.966 151.171C96.2532 150.729 88.0122 158.198 87.4604 167.91C87.1661 172.583 88.7848 177.182 91.9856 180.603L116.341 207.57C122.963 214.708 134.11 215.149 141.248 208.564C148.275 202.052 148.826 191.162 142.498 183.951L118.143 156.984C115.053 153.452 110.638 151.355 105.966 151.171Z" fill="#00CBBD"/>
<path d="M123.147 186.048L147.576 182.111L140.807 137.89L121.749 144.291L123.147 186.048Z" fill="#00CBBD"/>
<path d="M100.41 193.296L70.3522 173.024L36.3213 176.041L95.7007 234.979C108.872 248.702 122.042 253.889 135.25 250.578L100.41 193.296Z" fill="black" fill-opacity="0.2"/>
<path d="M96.4736 145.688C95.9953 144.953 95.2963 144.364 94.4501 144.106C94.1926 143.886 93.8982 143.702 93.6407 143.518L86.6506 139.544C86.0987 139.213 85.4733 139.029 84.8111 138.993C84.1856 138.919 83.5602 139.029 82.9715 139.287L72.6703 143.702C71.6402 144.106 70.8676 144.916 70.4997 145.983C70.0582 146.976 70.0582 148.117 70.4997 149.11C70.8676 149.956 71.493 150.618 72.3024 151.06L68.9913 152.495C67.9979 152.936 67.1886 153.782 66.8575 154.812C66.416 155.806 66.4528 156.946 66.931 157.94C67.3357 158.933 68.1819 159.742 69.212 160.11C69.4696 160.257 69.7639 160.331 70.0214 160.404C69.8374 160.625 69.7271 160.883 69.6535 161.14C69.2488 162.134 69.2856 163.274 69.7271 164.267C70.1686 165.298 71.0147 166.07 72.0449 166.475C72.7071 166.732 73.4061 166.806 74.1051 166.696C74.1051 166.732 74.0683 166.732 74.0683 166.769C73.6268 167.762 73.6636 168.94 74.1419 169.896C74.5834 170.89 75.3928 171.699 76.4229 172.104C77.453 172.508 78.5935 172.472 79.5501 172.03L80.1019 171.846C79.918 172.104 79.7708 172.398 79.6604 172.692C79.2557 173.722 79.3293 174.863 79.8444 175.82C80.3227 176.813 81.2056 177.549 82.2357 177.88C83.2659 178.211 84.4064 178.137 85.3997 177.622L97.6876 171.442C98.4602 171.294 99.196 170.926 99.7847 170.411L100.153 170.227C100.962 169.823 101.587 169.161 101.992 168.351L102.801 166.622C102.875 166.512 102.912 166.401 102.949 166.254L103.243 165.371V165.15C103.28 165.114 103.28 165.04 103.28 165.003V164.966L103.832 158.896C103.905 158.013 103.684 157.13 103.169 156.358C103.096 156.063 102.949 155.806 102.801 155.585C102.25 154.739 101.735 153.893 101.256 153.046C101.219 153.01 101.219 152.936 101.183 152.899C100.741 152.237 100.337 151.612 99.895 150.986C99.8582 150.949 99.8215 150.913 99.8215 150.839L99.5271 150.398C99.4903 150.361 99.4903 150.324 99.4535 150.287L96.4736 145.688Z" fill="#FF9966"/>
<path d="M146.619 151.943C139.261 145.578 128.114 146.387 121.749 153.745C118.696 157.277 117.151 161.876 117.482 166.548L118.88 186.599L45.005 140.354C36.7272 135.203 25.8373 137.742 20.6867 146.056C18.2586 149.993 17.4492 154.739 18.4425 159.227C19.4359 163.826 22.2687 167.799 26.242 170.264L129.549 234.941C137.79 240.129 148.68 237.627 153.83 229.386C155.817 226.222 156.737 222.506 156.479 218.754L152.616 164.047C152.396 159.338 150.188 154.996 146.619 151.943Z" fill="#999999"/>
<path d="M80.7283 346.894L86.7987 343.325L62.6643 301.936L56.5571 305.505L80.7283 346.894Z" fill="#440063"/>
<path d="M332.777 179.205C353.269 158.713 363.533 133.953 363.533 104.999C363.533 76.0453 353.269 51.2855 332.777 30.7566C312.285 10.2645 287.562 0 258.534 0C229.507 0 204.784 10.2645 184.292 30.7566C163.8 51.2487 153.572 76.0085 153.572 104.999C153.572 133.99 163.8 158.713 184.292 179.205C204.784 199.697 229.544 209.962 258.534 209.962C287.525 209.962 312.285 199.734 332.777 179.205Z" fill="#00CBBD"/>
<path d="M354.594 104.962C354.594 78.4367 345.213 55.8107 326.45 37.0477C307.687 18.248 285.061 8.86646 258.535 8.86646C232.01 8.86646 209.384 18.248 190.584 37.0477C171.821 55.8107 162.439 78.4367 162.439 104.962C162.439 131.488 171.821 154.151 190.584 172.914C209.347 191.677 232.01 201.058 258.535 201.058C285.061 201.058 307.724 191.677 326.487 172.914C345.213 154.151 354.594 131.525 354.594 104.962Z" fill="white"/>
<path d="M281.786 85.8687L247.461 88.3704L254.304 126.743L298.084 125.087L281.786 85.8687Z" fill="#FF9966"/>
<path d="M205.926 163.826L204.38 184.539C215.785 192.523 228.883 197.784 242.642 199.844C247.903 200.653 253.201 201.058 258.535 201.021C280.021 201.021 298.931 194.877 315.303 182.552L319.607 163.385L205.926 163.826Z" fill="#027E89"/>
<path d="M294.958 88.8848L247.646 102.129L249.448 113.387C237.234 114.895 226.123 122.29 216.116 135.645L205.926 163.826L319.607 163.385L323.286 146.903C327.26 123.725 319.791 112.063 300.808 111.915L294.958 88.8848Z" fill="#999999"/>
<path d="M229.323 128.066L225.534 129.538V137.411L231.972 134.909C232.855 134.541 233.591 133.842 233.996 132.959C234.4 132.076 234.437 131.046 234.069 130.126C233.701 129.207 233.002 128.508 232.119 128.103C231.236 127.661 230.206 127.661 229.323 128.066Z" fill="#FF9966"/>
<path d="M258.902 125.344L254.487 114.932L228.219 123.504L236.276 139.618L258.902 125.344ZM242.715 122.805L245.511 128.949L237.969 133.953L233.959 125.896L242.715 122.805Z" fill="white"/>
<path d="M201.51 91.8646C200.775 92.49 200.296 93.4098 200.223 94.3663L197.831 124.13C197.905 132.665 202.062 137.852 210.34 139.729L219.501 139.692C219.648 139.655 219.795 139.618 219.942 139.618L225.497 137.448V129.538L220.752 131.377L217.44 125.491L218.912 117.029L224.283 115.889L231.605 123.21C232.304 123.909 233.223 124.314 234.217 124.314C235.21 124.314 236.13 123.946 236.829 123.247C237.528 122.584 237.932 121.628 237.932 120.671C237.932 119.678 237.565 118.721 236.866 118.022L228.146 109.23C227.705 108.788 227.153 108.494 226.564 108.31C225.976 108.126 225.35 108.089 224.762 108.236L219.317 109.414L227.484 101.393C228.919 99.9584 228.956 97.6407 227.521 96.2059C226.859 95.5068 225.939 95.1389 224.982 95.1021C223.989 95.1021 223.032 95.47 222.333 96.1691L216.778 101.614L219.427 95.9483C220.273 94.1088 219.501 91.9014 217.661 91.0552C217.661 91.0552 217.624 91.0552 217.624 91.0184C216.741 90.577 215.711 90.5402 214.828 90.9081C213.909 91.2392 213.136 91.9382 212.768 92.8212L206.698 105.992L207.617 94.955C207.728 93.9617 207.397 93.0051 206.734 92.2693C205.373 90.7609 203.055 90.577 201.51 91.8646Z" fill="#FF9966"/>
<path d="M280.204 45.2515C280.168 43.5224 279.469 41.8668 278.218 40.6528L265.084 28.0705C262.655 25.5688 258.682 25.532 256.217 27.9234C256.144 27.9969 256.07 28.0705 255.96 28.1809H255.886C254.635 29.395 253.973 31.0873 254.083 32.8164C254.01 34.1041 254.378 35.3918 255.15 36.4587L252.906 34.1777C251.692 32.9636 250.036 32.3014 248.307 32.375C246.578 32.375 244.923 33.1108 243.782 34.4352L243.709 34.3984C242.458 35.6125 241.795 37.3048 241.832 39.034C241.832 40.7999 242.568 42.4923 243.856 43.7063L256.879 56.3622C258.093 57.613 259.749 58.2752 261.441 58.2752C263.207 58.2017 264.9 57.4659 266.114 56.1414H266.151C267.401 54.9273 268.1 53.2718 268.027 51.5059C267.99 50.3286 267.659 49.1513 267.033 48.1212L269.057 50.1078C270.271 51.3219 271.963 52.0209 273.692 51.9841C275.458 51.9473 277.114 51.2483 278.365 49.9607H278.402C279.616 48.7466 280.278 47.0175 280.204 45.2515Z" fill="#450063"/>
<path d="M235.319 66.2585C233.958 67.2886 233.112 68.8338 233.038 70.5629C232.818 72.2921 233.296 74.0212 234.4 75.3456L234.436 75.3824C234.51 75.4192 234.51 75.4192 234.51 75.456C234.51 75.456 234.547 75.4928 234.584 75.4928C234.584 75.5296 234.62 75.5664 234.657 75.6032C234.657 75.6032 234.694 75.64 234.694 75.6768L237.159 77.3691C237.269 77.4059 237.38 77.4427 237.527 77.5163L236.239 82.3358C234.657 88.259 235.43 93.7775 238.52 98.9649C239.33 100.4 240.323 101.761 241.5 102.938L241.795 98.6338L260.852 99.4432L283.404 90.54L284.214 87.4128L241.795 60.9607L235.319 66.2585Z" fill="#FF9966"/>
<path d="M273.103 42.8234L269.571 41.9404C263.722 40.3584 258.166 41.131 252.869 44.2214C247.791 47.1278 244.112 51.9841 242.751 57.6498L241.868 60.9242L241.795 61.0345L284.214 87.4499L288.849 69.717C290.395 63.8306 289.622 58.2753 286.568 53.0878C283.552 47.8268 279.063 44.4054 273.103 42.8234Z" fill="#E68353"/>
<path d="M266.775 76.6336L258.902 71.7405L255.333 82.1521L237.527 77.443L233.222 92.0486C232.376 94.8079 232.707 97.8247 234.179 100.326C235.577 102.902 237.968 104.815 240.838 105.624L246.651 107.28C249.447 108.163 252.464 107.832 255.002 106.36C257.541 104.925 259.417 102.534 260.153 99.701L266.775 76.6336Z" fill="#9B006D"/>
<path d="M259.271 26.783C259.161 26.8933 259.014 27.0037 258.867 27.0405L258.204 40.7264L265.857 49.3721L258.867 71.7037L266.776 76.6336L266.997 75.7874L276.268 73.8376L284.436 86.4198L284.877 86.1623C285.429 85.8312 285.981 85.5 286.496 85.1321C290.874 82.1889 293.744 78.0316 295.178 72.6971L296.061 69.2388C297.68 63.6099 296.871 57.5395 293.78 52.5361C290.727 47.2751 286.312 43.0442 280.499 39.8067L259.271 26.783Z" fill="#450063"/>
<path d="M267.805 79.2087C268.468 80.5332 269.682 81.4897 271.116 81.8944C272.367 82.3727 273.802 82.3359 275.016 81.7473L267.07 76.8174C267.143 77.6268 267.401 78.4361 267.805 79.2087Z" fill="#FF9966"/>
<path d="M273.029 62.3594C271.668 63.0216 270.601 64.2357 270.123 65.6705L267.364 74.8312C267.143 75.4567 267.032 76.1189 267.069 76.7811L274.979 81.711C275.163 81.6374 275.347 81.5638 275.531 81.4534C276.855 80.7912 277.849 79.5771 278.217 78.1423L281.05 69.092C281.565 67.6572 281.454 66.0752 280.755 64.7507C280.056 63.4263 278.842 62.3962 277.371 61.9547C275.973 61.5132 274.391 61.6236 273.029 62.3594Z" fill="#E68353"/>
<path d="M225.166 145.615C220.751 144.548 216.116 145.357 212.327 147.822L184.035 165.739C186.058 168.167 188.229 170.522 190.547 172.839L190.584 172.876C194.851 177.144 199.45 181.044 204.38 184.539C206.624 186.084 208.905 187.556 211.223 188.88L230.574 176.666C234.437 174.274 237.123 170.411 238.08 165.997C240.103 156.799 234.364 147.712 225.166 145.615Z" fill="#027E89"/>
<path d="M257.027 121.15L252.575 120.267L238.595 189.984H243.231L257.027 121.15Z" fill="white"/>
<path d="M227.411 144.328C227.153 144.475 226.896 144.695 226.638 144.879C225.866 145.137 225.24 145.652 224.799 146.314L222.039 150.508L221.966 150.619L221.708 151.023C221.708 151.06 221.671 151.097 221.635 151.134C221.267 151.722 220.862 152.311 220.494 152.863C220.494 152.9 220.457 152.973 220.421 153.01C219.979 153.783 219.538 154.518 219.023 155.291C218.875 155.512 218.765 155.733 218.691 155.99C218.25 156.652 218.029 157.462 218.103 158.271L218.581 163.79V163.826C218.581 163.863 218.581 163.937 218.618 163.974L218.655 164.158V164.194L218.875 164.967C218.912 165.077 218.949 165.188 219.023 165.261L219.722 166.843C220.089 167.579 220.641 168.168 221.377 168.536L221.708 168.683C222.223 169.198 222.886 169.529 223.621 169.676L234.695 175.268C235.578 175.71 236.608 175.783 237.565 175.452C238.521 175.158 239.294 174.459 239.735 173.576C240.214 172.693 240.287 171.663 239.919 170.743C239.846 170.449 239.699 170.191 239.552 169.934L240.03 170.118C240.913 170.559 241.98 170.596 242.899 170.191C243.856 169.86 244.592 169.124 244.996 168.204C245.401 167.321 245.438 166.291 245.07 165.372C245.07 165.335 245.07 165.298 245.033 165.298C245.659 165.408 246.321 165.335 246.91 165.114C247.829 164.783 248.602 164.047 248.97 163.127C249.411 162.244 249.448 161.214 249.043 160.295C248.97 160.037 248.859 159.816 248.712 159.596C248.97 159.559 249.227 159.485 249.448 159.412C250.368 159.08 251.14 158.345 251.508 157.425C251.95 156.542 251.987 155.512 251.582 154.592C251.251 153.635 250.552 152.863 249.632 152.495L246.652 151.171C247.388 150.766 247.94 150.14 248.271 149.368C248.675 148.448 248.675 147.455 248.308 146.535C247.976 145.578 247.241 144.843 246.321 144.475L236.976 140.465C236.461 140.207 235.873 140.133 235.284 140.17C234.695 140.207 234.143 140.354 233.591 140.649L227.411 144.328Z" fill="#FF9966"/>
<path d="M217.182 159.669L218.838 139.545L200.038 133.842L196.801 159.669H217.182Z" fill="#027E89"/>
<path d="M196.985 149.11C193.563 152.053 191.466 156.321 191.282 160.846L190.546 172.877L190.583 172.913C205.483 187.813 222.848 196.79 242.641 199.881L313.462 154.151C317.289 151.722 319.974 147.859 320.894 143.408C322.844 134.21 317.031 125.16 307.833 123.173C303.419 122.143 298.783 122.989 294.994 125.491L224.835 170.78L225.313 162.833C225.865 153.451 218.728 145.394 209.346 144.806C204.821 144.511 200.369 146.057 196.985 149.11Z" fill="#999999"/>
<path d="M343.483 244.508H327.848V287.074H357.979L343.483 244.508Z" fill="#440063"/>
<path d="M343.409 287.11L352.386 227.768H310.077L301.1 287.11H343.409Z" fill="#999999"/>
<path d="M305.406 282.07H340.577L348.046 232.808H312.874L305.406 282.07Z" fill="#027E89"/>
<path d="M226.343 286.558C227.3 285.638 227.852 284.387 227.815 283.063V278.648C227.815 275.889 225.571 273.644 222.848 273.644H175.278C172.556 273.608 170.312 275.815 170.275 278.538C170.275 278.574 170.275 278.611 170.275 278.648V283.063C170.312 285.822 172.519 288.03 175.278 288.066H222.811C224.136 288.066 225.423 287.514 226.343 286.558Z" fill="#440063"/>
<path d="M245.106 244.618H243.229C239.55 244.544 235.982 246.016 233.406 248.665V248.702C230.757 251.277 229.323 254.809 229.359 258.488V265.331C229.359 273.02 235.577 279.238 243.266 279.238H245.142V286.853H284.802V235.715H245.106V244.618ZM243.229 251.424H245.106V272.431H243.229C241.353 272.468 239.55 271.696 238.226 270.371V270.334C236.865 269.01 236.129 267.207 236.166 265.331V258.488C236.166 254.588 239.33 251.424 243.229 251.424Z" fill="#FB5058"/>
<path d="M162.549 311.649V537.945H371.48V311.649H162.549Z" fill="#999999"/>
<path d="M162.549 286.411V512.707H371.48V286.411H162.549Z" fill="#999999"/>
<path d="M362.541 346.122V296.492H169.65V346.122H362.541Z" fill="#027E89"/>
<path d="M266.113 303.445C261.036 303.445 256.952 307.528 256.915 312.605C256.915 317.682 260.999 321.766 266.076 321.803C271.153 321.803 275.237 317.719 275.273 312.642C275.273 310.214 274.317 307.859 272.588 306.13C270.859 304.401 268.541 303.408 266.113 303.445Z" fill="#999999"/>
<path d="M362.541 403.073V353.443H169.65V403.073H362.541Z" fill="#027E89"/>
<path d="M275.237 369.557C275.2 364.517 271.117 360.433 266.076 360.47C261.036 360.507 256.952 364.59 256.989 369.63C257.026 374.671 261.073 378.718 266.113 378.718C271.153 378.718 275.237 374.634 275.237 369.557Z" fill="#999999"/>
</svg>
