<svg xmlns="http://www.w3.org/2000/svg" viewBox="0 0 115.52 30.7"><title>deliveroo_logo</title><path d="M42.19,23h2.64l-.44-2V8.89H41.87V14.4a3.91,3.91,0,0,0-3-1.38c-2.52,0-4.47,2.06-4.47,5.09s2,5.09,4.47,5.09a4,4,0,0,0,3.09-1.44L42.19,23ZM92,15.72a2.46,2.46,0,0,1,1.42.44l1.2-2.67A3.43,3.43,0,0,0,92.79,13a3.08,3.08,0,0,0-2.69,1.45l-.27-1.23h-2.6l.42,1.92V23h2.52V16.76a2,2,0,0,1,1.82-1Zm7.39,4.85a2.46,2.46,0,1,1,2.54-2.46,2.38,2.38,0,0,1-2.31,2.46ZM36.81,18.11a2.54,2.54,0,1,1,2.47,2.46A2.54,2.54,0,0,1,36.81,18.11Zm73.73,2.46a2.46,2.46,0,1,1-.17-4.92h.17a2.36,2.36,0,0,1,2.53,2.18,2.62,2.62,0,0,1,0,.28,2.38,2.38,0,0,1-2.29,2.46ZM50.94,15.5a2.23,2.23,0,0,1,2.43,1.72H48.52A2.25,2.25,0,0,1,50.94,15.5Zm30.14,0a2.23,2.23,0,0,1,2.43,1.72H78.66a2.25,2.25,0,0,1,2.42-1.72ZM68.79,23h4l2.64-9.77H72.73L70.8,21.14l-1.93-7.92H66.16L68.79,23h0Zm-6.5,0h2.52V13.23H62.29Zm-11,.18a7.33,7.33,0,0,0,3.94-1.12l-1-2.16a6.52,6.52,0,0,1-2.94.76,2.61,2.61,0,0,1-2.64-1.46H55.8a5,5,0,0,0,.11-1.15,4.93,4.93,0,0,0-9.85-.25v.28c0,3.1,2.07,5.09,5.27,5.09h0Zm64.19-5.06a5,5,0,0,0-10-.25v.25a5,5,0,0,0,10,.2v-.2ZM81.42,23.2a7.3,7.3,0,0,0,3.94-1.12l-1-2.16a6.27,6.27,0,0,1-2.94.76,2.62,2.62,0,0,1-2.65-1.46H85.9A5.54,5.54,0,0,0,86,18.07a4.93,4.93,0,1,0-9.85-.24v.28c0,3.1,2.07,5.09,5.27,5.09h0Zm18,0a4.85,4.85,0,0,0,5-4.69c0-.14,0-.27,0-.4a5,5,0,0,0-10-.2v.2A4.84,4.84,0,0,0,99,23.2ZM57.52,23H60V8.89H57.52V23Zm6-11.11A1.59,1.59,0,1,0,62,10.29a1.54,1.54,0,0,0,1.5,1.59ZM20.28,0,18.84,13.53,16.38,2.12,8.66,3.74l2.46,11.41L0,17.48,2,26.6l19.56,4.1L26,20.8l2.13-20ZM14.1,19.64a1.45,1.45,0,0,1-1.5.14c-.56-.18-.82-.86-.6-1.67.16-.6.91-.7,1.28-.7a.85.85,0,0,1,.42.08c.26.12.71.37.8.76a1.31,1.31,0,0,1-.4,1.38h0Zm5.66.62c-.29.5-1.06.57-1.82.2-.51-.24-.5-.87-.45-1.25a1.18,1.18,0,0,1,.25-.57,1.26,1.26,0,0,1,.84-.54,1.49,1.49,0,0,1,1.34.7,1.38,1.38,0,0,1-.16,1.46Z" style="fill:#fff;fill-rule:evenodd"/></svg>