<svg width="886" height="548" viewBox="0 0 886 548" fill="none" xmlns="http://www.w3.org/2000/svg">
<path fill-rule="evenodd" clip-rule="evenodd" d="M992.36 489.427C991.028 483.816 988.27 478.871 983.893 474.59C977.806 468.504 970.385 465.365 961.729 465.365C956.021 465.365 950.884 466.697 946.319 469.36C945.462 462.416 942.418 456.425 937.281 451.289C931.193 445.202 923.773 442.064 915.117 442.064C906.46 442.064 899.041 445.107 892.857 451.289C888.196 455.95 885.342 461.276 884.296 467.457C883.344 467.362 882.298 467.268 881.251 467.268C874.973 467.268 869.551 469.455 865.08 473.925C860.8 478.205 858.612 483.435 858.421 489.427H992.36Z" fill="#E4E4E4"/>
<path fill-rule="evenodd" clip-rule="evenodd" d="M616.895 306.344C564.1 253.56 500.365 227.119 425.596 227.119C350.922 227.119 287.187 253.56 234.296 306.344C183.499 357.227 157.054 418.192 155.151 489.238H696.136C694.233 418.192 667.788 357.227 616.895 306.344Z" fill="#EBEBEB"/>
<path fill-rule="evenodd" clip-rule="evenodd" d="M230.016 427.797V488.382H284.714V451.955L230.016 427.797Z" fill="#999999"/>
<path fill-rule="evenodd" clip-rule="evenodd" d="M181.691 440.827V488.382H230.111V427.797L181.691 440.827Z" fill="#CCCCCC"/>
<path fill-rule="evenodd" clip-rule="evenodd" d="M384.216 489.142C382.884 483.531 380.126 478.585 375.845 474.305C369.757 468.218 362.337 465.08 353.68 465.08C347.973 465.08 342.835 466.411 338.27 469.074C337.413 462.131 334.37 456.14 329.233 451.004C323.144 444.917 315.725 441.778 307.068 441.778C298.412 441.778 290.992 444.821 284.808 451.004C280.148 455.664 277.294 460.99 276.247 467.172C275.296 467.077 274.25 466.982 273.203 466.982C266.925 466.982 261.503 469.17 257.032 473.64C252.751 477.919 250.563 483.15 250.372 489.142H384.216Z" fill="#AEAEAE"/>
<path fill-rule="evenodd" clip-rule="evenodd" d="M1087.3 283.422C1041.26 248.518 1007.01 243.762 984.559 269.346C949.743 244.714 916.068 248.613 883.345 281.139L1087.3 283.422Z" fill="#EBEBEB"/>
<path fill-rule="evenodd" clip-rule="evenodd" d="M480.864 120.502V292.553L729.811 226.358V5.13538L480.864 120.502Z" fill="#E4E4E4"/>
<path fill-rule="evenodd" clip-rule="evenodd" d="M729.811 489.333H910.455V317.947L729.811 245.379V489.333Z" fill="#FFAD93"/>
<path fill-rule="evenodd" clip-rule="evenodd" d="M910.36 317.947V298.925L729.715 226.357V245.379L910.36 317.947Z" fill="#007E8A"/>
<path fill-rule="evenodd" clip-rule="evenodd" d="M480.864 311.574V489.332H729.811V245.379L480.864 311.574Z" fill="#FFD6C9"/>
<path fill-rule="evenodd" clip-rule="evenodd" d="M480.864 292.553V311.575L729.811 245.379V226.357L480.864 292.553Z" fill="#00CCBD"/>
<path fill-rule="evenodd" clip-rule="evenodd" d="M910.36 122.975L729.715 5.13574V226.358L910.36 298.926V122.975Z" fill="#CCCCCC"/>
<path fill-rule="evenodd" clip-rule="evenodd" d="M493.516 354.279L493.041 476.113L647.146 474.496L647.621 330.406L493.516 354.279Z" fill="#00CCBD"/>
<path fill-rule="evenodd" clip-rule="evenodd" d="M763.961 333.831L762.914 475.066L895.996 475.542V371.589L763.961 333.831Z" fill="#00CCBD"/>
<path fill-rule="evenodd" clip-rule="evenodd" d="M896.471 412.294V386.33L893.713 363.408L763.676 327.077V404.686L896.471 412.294Z" fill="#007E8A"/>
<path fill-rule="evenodd" clip-rule="evenodd" d="M910.17 392.797L893.904 362.838L763.77 326.507L784.317 369.782L910.17 392.797Z" fill="#FABE00"/>
<path fill-rule="evenodd" clip-rule="evenodd" d="M784.318 369.686L784.984 382.241L910.361 400.121L910.171 392.797L784.318 369.686Z" fill="#FABE00"/>
<path fill-rule="evenodd" clip-rule="evenodd" d="M493.516 355.515L493.326 407.539L647.621 400.026V330.501L493.516 355.515Z" fill="#007E8A"/>
<path fill-rule="evenodd" clip-rule="evenodd" d="M493.421 354.089L473.826 385.664L620.891 372.159L648.288 329.55L493.421 354.089Z" fill="#FABE00"/>
<path fill-rule="evenodd" clip-rule="evenodd" d="M473.825 385.664L472.684 395.841L620.32 385.76L620.89 372.159L473.825 385.664Z" fill="#FABE00"/>
<path fill-rule="evenodd" clip-rule="evenodd" d="M662.27 360.46C658.084 364.645 656.087 369.59 656.087 375.487V489.237H698.798V375.487C698.798 369.59 696.706 364.549 692.52 360.46C688.334 356.37 683.388 354.278 677.491 354.278C671.402 354.278 666.456 356.275 662.27 360.46Z" fill="#00CCBD"/>
<path fill-rule="evenodd" clip-rule="evenodd" d="M498.748 313.382V344.768L700.322 311.194V264.687L498.748 313.382Z" fill="#FF5863"/>
<path fill-rule="evenodd" clip-rule="evenodd" d="M747.028 261.452V308.626L903.416 356.37V321.751L747.028 261.452Z" fill="#FF5863"/>
<path fill-rule="evenodd" clip-rule="evenodd" d="M688.359 186.602V27.0106H693.448V185.498L711.571 202.434C712.086 202.915 712.378 203.589 712.378 204.294L712.283 490.284L707.194 490.283L707.289 205.397L689.166 188.461C688.651 187.98 688.359 187.307 688.359 186.602Z" fill="#AEAEAE"/>
<path fill-rule="evenodd" clip-rule="evenodd" d="M738.562 356.371L738.658 470.025L755.685 469.265V359.224L738.562 356.371Z" fill="#450063"/>
<path fill-rule="evenodd" clip-rule="evenodd" d="M727.503 0.45158C728.999 -0.251668 730.754 -0.127143 732.136 0.780433L912.781 119.38L907.559 127.33L729.14 10.1913L478.322 128.04L474.276 119.432L727.503 0.45158Z" fill="#AEAEAE"/>
<path fill-rule="evenodd" clip-rule="evenodd" d="M726.671 470.348L726.1 441.34L729.904 441.265L730.475 470.273L726.671 470.348Z" fill="#007E8A"/>
<path fill-rule="evenodd" clip-rule="evenodd" d="M727.908 408.015C722.771 408.015 718.3 409.822 714.685 413.531C711.071 417.145 709.263 421.616 709.168 426.846C709.168 431.982 710.975 436.452 714.685 440.067C718.395 443.776 722.771 445.583 727.908 445.583C733.045 445.583 737.516 443.776 741.131 440.067C744.841 436.452 746.648 431.982 746.648 426.846C746.648 421.616 744.841 417.241 741.131 413.531C737.516 409.917 733.045 408.015 727.908 408.015Z" fill="#007E8A"/>
<path fill-rule="evenodd" clip-rule="evenodd" d="M740.37 463.653L716.589 464.224L718.301 488.856H738.753L740.37 463.653Z" fill="#450063"/>
<path fill-rule="evenodd" clip-rule="evenodd" d="M816.383 468.884H824.936C825.724 468.884 826.363 468.245 826.363 467.457C826.363 466.669 825.724 466.03 824.936 466.03H815.356C810.748 456.796 806.937 449.635 803.927 444.563C802.38 441.957 801.029 439.876 799.878 438.341C798.773 436.866 797.717 435.706 796.734 435.173C796.223 434.897 795.465 434.647 794.666 434.965C793.873 435.28 793.489 435.976 793.302 436.521C792.938 437.581 792.935 439.153 793.107 441C793.461 444.816 794.681 450.823 796.727 458.96M812.165 466.03C807.856 457.438 804.293 450.772 801.472 446.019C799.95 443.454 798.658 441.471 797.595 440.052C796.863 439.077 796.296 438.446 795.885 438.071C795.831 438.634 795.834 439.499 795.948 440.736C796.281 444.315 797.451 450.137 799.495 458.264L799.495 458.265C799.595 458.663 799.724 459.134 799.861 459.633C800.062 460.367 800.28 461.161 800.446 461.874L800.474 461.978C800.844 463.308 801.215 464.645 801.587 466.03H812.165ZM796.032 437.374C796.032 437.374 796.03 437.378 796.027 437.383C796.03 437.377 796.031 437.374 796.032 437.374ZM807.871 468.884H800.49C799.841 468.884 799.275 468.447 799.11 467.82C798.649 466.069 798.187 464.406 797.723 462.735L797.687 462.608C797.682 462.587 797.677 462.567 797.672 462.547C797.506 461.826 797.328 461.183 797.146 460.525C797.007 460.025 796.867 459.517 796.727 458.96M807.871 468.884L801.98 487.766L804.705 488.615L810.763 469.198V488.191H813.617V469.607L819.967 488.828L822.677 487.933L816.383 468.884M865.528 466.03H855.948C855.365 466.03 854.841 466.384 854.624 466.925C854.407 467.465 854.539 468.083 854.959 468.486L862.317 475.551L858.208 487.932C857.968 488.655 858.339 489.44 859.052 489.713C859.764 489.986 860.565 489.651 860.87 488.951L865.419 478.529L867.267 480.304V488.191C867.267 488.947 867.858 489.572 868.613 489.615C869.368 489.658 870.026 489.105 870.112 488.353L870.662 483.563L876.553 489.22C877.023 489.671 877.738 489.746 878.292 489.404C878.846 489.061 879.097 488.387 878.904 487.766L873.013 468.884H880.395C881.043 468.884 881.609 468.447 881.774 467.821C882.248 466.024 882.721 464.321 883.197 462.608C883.202 462.587 883.208 462.567 883.212 462.547C883.378 461.828 883.554 461.192 883.735 460.541C883.874 460.037 884.016 459.525 884.158 458.958C884.158 458.958 884.158 458.959 884.157 458.96L882.774 458.612L884.158 458.958M864.53 468.884H859.494L863.313 472.551L864.53 468.884ZM866.636 475.741L867.267 476.348V474.294L866.636 475.741ZM871.07 479.999L874.526 483.318L871.721 474.326L871.07 479.999ZM871.073 466.03H879.298C879.679 464.609 880.06 463.238 880.439 461.874C880.602 461.169 880.82 460.376 881.021 459.643C881.159 459.139 881.29 458.664 881.389 458.266L881.39 458.264C883.433 450.137 884.604 444.315 884.936 440.736C885.051 439.499 885.053 438.634 884.999 438.071C884.589 438.446 884.021 439.077 883.29 440.052C882.226 441.471 880.935 443.454 879.412 446.019C876.591 450.772 873.028 457.438 868.719 466.03H871.065C871.068 466.03 871.07 466.03 871.073 466.03ZM884.858 437.383C884.854 437.378 884.853 437.374 884.853 437.374C884.853 437.374 884.855 437.377 884.858 437.383ZM840.823 451.193C841.611 451.193 842.25 451.832 842.25 452.62V488.666C842.25 489.454 841.611 490.093 840.823 490.093C840.035 490.093 839.396 489.454 839.396 488.666V452.62C839.396 451.832 840.035 451.193 840.823 451.193Z" fill="#007E8A"/>
<path fill-rule="evenodd" clip-rule="evenodd" d="M818.944 454.808V451.004H863.558V454.808H818.944Z" fill="#007E8A"/>
<path fill-rule="evenodd" clip-rule="evenodd" d="M784.698 96.7244L754.828 76.9419V160.257L787.838 174.333L784.698 96.7244ZM843.01 129.918L815.995 114.795V187.934L844.057 199.346L843.01 129.918ZM890.954 161.113L866.032 145.896V212.947L890.954 223.884V161.113Z" fill="#AEAEAE"/>
<path fill-rule="evenodd" clip-rule="evenodd" d="M844.057 205.625L843.867 195.923L815.995 182.038V194.307L844.057 205.625ZM866.032 219.225L890.955 230.163V219.415L866.032 206.956V219.225ZM787.838 180.516L787.362 167.772L754.829 151.698V166.535L787.838 180.516Z" fill="black"/>
<path fill-rule="evenodd" clip-rule="evenodd" d="M896.092 225.786V215.42L865.937 200.583V212.852L896.092 225.786ZM848.243 201.629L847.102 192.403L815.9 175.665V187.933L848.243 201.629ZM792.974 176.045L792.118 163.3L754.924 145.325V160.257L792.974 176.045Z" fill="#E4E4E4"/>
<path fill-rule="evenodd" clip-rule="evenodd" d="M516.347 208.668L541.27 201.915V134.864L516.347 145.896V208.668Z" fill="#AEAEAE"/>
<path fill-rule="evenodd" clip-rule="evenodd" d="M673.306 165.489V82.1738L643.435 97.0102L640.391 174.048L673.306 165.489Z" fill="#AEAEAE"/>
<path fill-rule="evenodd" clip-rule="evenodd" d="M601.77 112.037L574.754 122.69L573.708 191.928L601.77 185.271V112.037Z" fill="#AEAEAE"/>
<path fill-rule="evenodd" clip-rule="evenodd" d="M601.77 191.548V179.279L573.898 188.504L573.708 198.205L601.77 191.548Z" fill="black"/>
<path fill-rule="evenodd" clip-rule="evenodd" d="M516.347 214.944L541.27 208.192V195.827L516.347 204.197V214.944Z" fill="black"/>
<path fill-rule="evenodd" clip-rule="evenodd" d="M511.209 209.713L541.364 201.914V189.55L511.209 199.442V209.713Z" fill="#CCCCCC"/>
<path fill-rule="evenodd" clip-rule="evenodd" d="M640.867 167.675L640.391 180.419L673.401 171.765V156.928L640.867 167.675Z" fill="black"/>
<path fill-rule="evenodd" clip-rule="evenodd" d="M636.206 162.541L635.254 175.095L673.306 165.489V150.652L636.206 162.541Z" fill="#CCCCCC"/>
<path fill-rule="evenodd" clip-rule="evenodd" d="M601.77 185.176V172.907L570.568 184.415L569.427 193.45L601.77 185.176Z" fill="#CCCCCC"/>
<path fill-rule="evenodd" clip-rule="evenodd" d="M631.45 472.342L630.975 446.378L634.779 446.308L635.254 472.272L631.45 472.342Z" fill="#007E8A"/>
<path fill-rule="evenodd" clip-rule="evenodd" d="M644.672 421.52C641.438 418.287 637.442 416.67 632.876 416.67C628.215 416.67 624.315 418.287 620.985 421.52C617.751 424.753 616.039 428.748 616.039 433.409C616.039 437.974 617.656 441.968 620.985 445.202C624.22 448.531 628.215 450.148 632.876 450.148C637.537 450.148 641.438 448.531 644.672 445.202C647.906 441.968 649.618 437.974 649.618 433.409C649.523 428.748 647.906 424.753 644.672 421.52Z" fill="#007E8A"/>
<path fill-rule="evenodd" clip-rule="evenodd" d="M642.484 488.857L643.911 466.316L622.698 466.792L624.219 488.857H642.484Z" fill="#450063"/>
<path fill-rule="evenodd" clip-rule="evenodd" d="M765.578 450.338L742.938 450.529L755.59 489.143H778.039L765.578 450.338Z" fill="#9C006D"/>
<path fill-rule="evenodd" clip-rule="evenodd" d="M765.292 450.243L742.937 450.433L730 489.237H752.45L765.292 450.243Z" fill="#FF5863"/>
<path fill-rule="evenodd" clip-rule="evenodd" d="M583.289 466.031H573.708C573.126 466.031 572.602 466.385 572.384 466.925C572.167 467.465 572.3 468.083 572.72 468.487L580.159 475.63L576.063 488.029C575.917 488.472 575.996 488.957 576.274 489.331C576.553 489.704 576.996 489.917 577.462 489.903L586.595 489.618C587.365 489.594 587.977 488.962 587.977 488.192V483.137L594.313 489.221C594.783 489.672 595.499 489.748 596.052 489.405C596.606 489.063 596.858 488.389 596.664 487.767L590.773 468.884H598.156C598.804 468.884 599.371 468.447 599.536 467.821C600.008 466.025 600.481 464.321 600.958 462.609C600.963 462.588 600.969 462.568 600.973 462.547C601.139 461.828 601.316 461.189 601.497 460.535C601.636 460.033 601.777 459.522 601.917 458.96C601.917 458.96 601.917 458.96 601.917 458.96L600.533 458.612L601.918 458.958C601.918 458.959 601.918 458.959 601.917 458.96C603.964 450.823 605.184 444.816 605.538 441.001C605.71 439.154 605.707 437.581 605.343 436.522C605.156 435.977 604.772 435.28 603.979 434.965C603.18 434.648 602.422 434.897 601.912 435.174C600.928 435.706 599.872 436.867 598.767 438.341C597.616 439.877 596.265 441.957 594.718 444.563C591.708 449.636 587.897 456.797 583.289 466.031ZM582.388 468.884H577.254L581.152 472.627L582.388 468.884ZM582.441 477.821L579.413 486.987L585.123 486.809V480.397L582.441 477.821ZM585.123 476.44L583.433 474.818L585.123 469.703V476.44ZM587.977 479.181L592.287 483.319L587.977 469.505V479.181ZM588.833 466.031H597.058C597.44 464.61 597.82 463.239 598.2 461.874C598.364 461.167 598.581 460.374 598.782 459.642C598.919 459.139 599.049 458.665 599.149 458.267L599.15 458.264C601.194 450.138 602.364 444.316 602.697 440.737C602.812 439.499 602.814 438.635 602.76 438.072C602.349 438.447 601.782 439.077 601.05 440.053C599.987 441.472 598.695 443.454 597.173 446.019C594.352 450.772 590.789 457.438 586.48 466.031H588.826C588.828 466.031 588.831 466.031 588.833 466.031ZM602.618 437.384C602.615 437.378 602.613 437.375 602.614 437.375C602.614 437.374 602.615 437.377 602.618 437.384ZM534.144 468.884H542.697C543.485 468.884 544.124 468.246 544.124 467.458C544.124 466.67 543.485 466.031 542.697 466.031H533.116C528.507 456.796 524.69 449.635 521.672 444.562C520.122 441.956 518.767 439.875 517.611 438.339C516.502 436.864 515.442 435.704 514.455 435.173C513.943 434.897 513.186 434.649 512.388 434.965C511.595 435.278 511.209 435.973 511.021 436.52C510.655 437.581 510.653 439.155 510.827 441.002C511.186 444.819 512.418 450.825 514.488 458.961C514.629 459.526 514.771 460.038 514.91 460.541C515.09 461.193 515.266 461.829 515.432 462.548C515.437 462.568 515.442 462.588 515.448 462.608C515.923 464.321 516.396 466.025 516.869 467.821C517.034 468.447 517.601 468.884 518.249 468.884H525.632L519.741 487.767L522.465 488.617L528.523 469.199V488.192H531.377V469.607L537.727 488.829L540.437 487.934L534.144 468.884ZM529.925 466.031H519.346C518.965 464.609 518.584 463.238 518.206 461.874C518.042 461.17 517.825 460.379 517.625 459.648C517.486 459.143 517.356 458.666 517.256 458.267L517.254 458.261C515.187 450.134 514.005 444.313 513.668 440.735C513.551 439.491 513.549 438.625 513.604 438.064C514.017 438.438 514.59 439.071 515.331 440.055C516.398 441.473 517.693 443.456 519.22 446.021C522.047 450.773 525.615 457.439 529.925 466.031ZM513.749 437.377C513.749 437.377 513.747 437.38 513.744 437.386C513.747 437.38 513.749 437.377 513.749 437.377ZM558.678 451.194C559.466 451.194 560.105 451.833 560.105 452.621V488.667C560.105 489.455 559.466 490.094 558.678 490.094C557.89 490.094 557.251 489.455 557.251 488.667V452.621C557.251 451.833 557.89 451.194 558.678 451.194Z" fill="#007E8A"/>
<path fill-rule="evenodd" clip-rule="evenodd" d="M536.704 451.004H581.318V454.808H536.704V451.004Z" fill="#007E8A"/>
<path fill-rule="evenodd" clip-rule="evenodd" d="M484.004 446.723C485.715 445.012 486.572 442.919 486.572 440.542C486.572 438.164 485.715 436.071 484.004 434.359C482.291 432.647 480.294 431.886 477.82 431.886C475.442 431.886 473.349 432.742 471.637 434.359C469.925 436.071 469.069 438.164 469.069 440.542C469.069 442.919 469.925 445.012 471.637 446.723C473.349 448.435 475.347 449.291 477.82 449.291C480.294 449.291 482.291 448.435 484.004 446.723Z" fill="#999999"/>
<path fill-rule="evenodd" clip-rule="evenodd" d="M482.101 454.333H472.778L468.784 489.142H487.523L482.101 454.333Z" fill="#999999"/>
<path fill-rule="evenodd" clip-rule="evenodd" d="M470.781 454.333H485.05V448.816H470.781V454.333Z" fill="#999999"/>
<path fill-rule="evenodd" clip-rule="evenodd" d="M284.523 343.341C249.707 318.708 216.032 322.608 183.308 355.23L387.26 357.418C341.218 322.513 306.973 317.852 284.523 343.341Z" fill="white"/>
<path fill-rule="evenodd" clip-rule="evenodd" d="M135.46 488.286H172.273V466.696L135.46 452.24V488.286Z" fill="#999999"/>
<path fill-rule="evenodd" clip-rule="evenodd" d="M75.5306 468.409V488.381H135.46V452.24L75.5306 468.409Z" fill="#CCCCCC"/>
<path fill-rule="evenodd" clip-rule="evenodd" d="M323.145 291.221H432.445C390.018 265.257 353.585 265.257 323.145 291.221Z" fill="white"/>
<path fill-rule="evenodd" clip-rule="evenodd" d="M678.062 328.028C675.874 328.028 673.972 328.789 672.449 330.311C670.928 331.832 670.071 333.735 670.071 335.923C670.071 338.11 670.832 340.012 672.449 341.534C673.971 343.056 675.874 343.816 678.062 343.816C680.25 343.816 682.152 343.056 683.674 341.534C685.196 340.012 686.053 338.11 686.053 335.923C686.053 333.735 685.291 331.832 683.674 330.311C682.152 328.789 680.25 328.028 678.062 328.028Z" fill="#007E8A"/>
<path fill-rule="evenodd" clip-rule="evenodd" d="M86.3746 491.33C92.6527 495.705 97.6947 494.659 101.595 488.001C95.5066 484.007 90.3699 485.149 86.3746 491.33Z" fill="#999999"/>
<path fill-rule="evenodd" clip-rule="evenodd" d="M171.228 487.907C176.27 492.852 181.406 493.613 186.543 489.999C181.406 485.434 176.364 484.673 171.228 487.907Z" fill="#999999"/>
<path fill-rule="evenodd" clip-rule="evenodd" d="M171.894 505.692C157.815 503.885 150.395 510.162 149.825 524.523C163.427 525.665 170.847 519.387 171.894 505.692Z" fill="#999999"/>
<path fill-rule="evenodd" clip-rule="evenodd" d="M112.63 487.811H124.806V460.42H112.63V487.811Z" fill="#999999"/>
<path fill-rule="evenodd" clip-rule="evenodd" d="M73.9125 495.989C78.9544 500.935 84.0918 501.696 89.2286 498.082C84.1867 493.517 79.0499 492.756 73.9125 495.989Z" fill="#999999"/>
<path fill-rule="evenodd" clip-rule="evenodd" d="M28.4428 512.159C16.9317 504.645 7.41959 506.737 0 518.34C11.7008 526.615 21.1173 524.523 28.4428 512.159Z" fill="#999999"/>
<path fill-rule="evenodd" clip-rule="evenodd" d="M289.945 538.6C275.961 518.627 259.504 516.535 240.574 532.322C255.033 550.868 271.491 552.961 289.945 538.6Z" fill="#999999"/>
<path fill-rule="evenodd" clip-rule="evenodd" d="M363.763 504.835C368.805 509.78 373.942 510.54 379.079 506.927C373.942 502.362 368.9 501.601 363.763 504.835Z" fill="#999999"/>
<path fill-rule="evenodd" clip-rule="evenodd" d="M314.487 497.892C320.766 502.268 325.808 501.221 329.708 494.564C323.525 490.664 318.483 491.711 314.487 497.892Z" fill="#999999"/>
<path fill-rule="evenodd" clip-rule="evenodd" d="M831.405 511.968C817.326 510.161 809.907 516.438 809.336 530.895C823.034 531.941 830.359 525.664 831.405 511.968Z" fill="#999999"/>
<path fill-rule="evenodd" clip-rule="evenodd" d="M179.218 387.757C179.218 393.939 181.406 399.265 185.877 403.735C190.253 408.111 195.579 410.298 201.953 410.298C208.231 410.298 213.558 408.111 218.03 403.735C222.501 399.265 224.689 393.939 224.689 387.757C224.689 381.48 222.405 376.059 218.03 371.588C213.654 367.213 208.231 364.931 201.953 364.931C195.675 364.931 190.348 367.119 185.877 371.588C181.406 376.059 179.218 381.385 179.218 387.757Z" fill="#999999"/>
<path fill-rule="evenodd" clip-rule="evenodd" d="M188.54 423.517L177.981 514.441H226.972L212.988 423.517H188.54Z" fill="#999999"/>
<path fill-rule="evenodd" clip-rule="evenodd" d="M183.213 423.518H220.693V409.06H183.213V423.518Z" fill="#999999"/>
<path fill-rule="evenodd" clip-rule="evenodd" d="M540.414 250.611L522.149 255.366L522.435 263.545L540.699 259.266L540.414 250.611Z" fill="#CCCCCC"/>
<path fill-rule="evenodd" clip-rule="evenodd" d="M529.093 249.089L547.358 244.809L547.072 236.155L528.808 240.91L529.093 249.089Z" fill="#CCCCCC"/>
<path fill-rule="evenodd" clip-rule="evenodd" d="M614.422 82.7445L596.252 92.0652L596.538 100.149L614.802 91.3046L614.422 82.7445Z" fill="#CCCCCC"/>
<path fill-rule="evenodd" clip-rule="evenodd" d="M625.837 73.2329L625.551 64.578L607.287 73.8987L607.573 82.0781L625.837 73.2329Z" fill="#CCCCCC"/>
<path fill-rule="evenodd" clip-rule="evenodd" d="M636.967 79.8914L636.682 71.3313L618.417 80.652L618.702 88.7359L636.967 79.8914Z" fill="#CCCCCC"/>
<path fill-rule="evenodd" clip-rule="evenodd" d="M684.911 223.123L685.196 231.303L703.366 227.022L703.08 218.368L684.911 223.123Z" fill="#CCCCCC"/>
<path fill-rule="evenodd" clip-rule="evenodd" d="M691.664 208.857L673.495 213.613L673.781 221.792L691.95 217.512L691.664 208.857Z" fill="#CCCCCC"/>
<path fill-rule="evenodd" clip-rule="evenodd" d="M621.937 231.114L603.672 235.869L603.958 244.048L622.221 239.863L621.937 231.114Z" fill="#CCCCCC"/>
<path fill-rule="evenodd" clip-rule="evenodd" d="M706.504 502.932H472.207L524.623 520.242L706.504 502.932Z" fill="#EBEBEB"/>
<path fill-rule="evenodd" clip-rule="evenodd" d="M406.034 489.304L405.373 473.073H393.952L406.034 489.304Z" fill="#007E8A"/>
<path fill-rule="evenodd" clip-rule="evenodd" d="M336.555 457.265L386.662 476.15L401.019 456.376L330.162 428.39L336.555 457.265Z" fill="#007E8A"/>
<path fill-rule="evenodd" clip-rule="evenodd" d="M354.965 463.783C352.536 461.661 349.902 460.757 346.952 460.921L346.795 458.094L346.952 460.921C344.01 461.084 341.742 462.246 339.96 464.46L339.945 464.479C338.134 466.691 337.402 469.257 337.773 472.398C338.163 475.538 339.534 478.111 341.976 480.245C344.417 482.378 347.034 483.292 349.968 483.129L349.97 483.129C352.929 482.965 355.201 481.804 357.005 479.584C358.795 477.356 359.535 474.781 359.149 471.658L359.147 471.642C358.776 468.488 357.408 465.917 354.965 463.783ZM346.638 455.267C351.136 455.018 355.203 456.472 358.692 459.52C362.164 462.554 364.229 466.394 364.771 470.971C365.333 475.538 364.211 479.66 361.414 483.138L361.406 483.147C358.577 486.633 354.809 488.532 350.283 488.782C345.77 489.033 341.725 487.546 338.249 484.509C334.776 481.474 332.714 477.636 332.151 473.085L332.15 473.071C331.611 468.524 332.699 464.394 335.555 460.902C338.366 457.414 342.136 455.517 346.638 455.267L346.638 455.267Z" fill="#450063"/>
<path fill-rule="evenodd" clip-rule="evenodd" d="M344.618 471.837L353.535 435.557L360.868 437.359L351.951 473.638L344.618 471.837Z" fill="#00CBBD"/>
<path fill-rule="evenodd" clip-rule="evenodd" d="M343.506 467.691C342.429 469.015 341.995 470.565 342.223 472.345C342.429 474.123 343.237 475.613 344.623 476.813C345.988 478.012 347.54 478.55 349.257 478.467C350.994 478.384 352.381 477.66 353.457 476.336C354.532 475.013 354.966 473.461 354.739 471.683C354.532 469.904 353.725 468.415 352.36 467.215C350.994 466.015 349.443 465.477 347.705 465.56C345.967 465.643 344.561 466.367 343.506 467.691Z" fill="#007E8A"/>
<path fill-rule="evenodd" clip-rule="evenodd" d="M441.974 474.946L426.664 439.741L433.589 436.731L448.899 471.936L441.974 474.946Z" fill="#00CBBD"/>
<path fill-rule="evenodd" clip-rule="evenodd" d="M431.802 454.888L460.393 449.075L444.029 441.856L431.802 454.888Z" fill="#FB5058"/>
<path fill-rule="evenodd" clip-rule="evenodd" d="M425.514 390.931L401.308 400.902L408.797 412.65L426.589 404.811L425.514 390.931Z" fill="#450063"/>
<path fill-rule="evenodd" clip-rule="evenodd" d="M407.825 411.818L381.841 384.06L383.909 382.125L409.893 409.883L407.825 411.818Z" fill="#00CBBD"/>
<path fill-rule="evenodd" clip-rule="evenodd" d="M420.788 406.565L420.932 361.412L423.764 361.421L423.62 406.574L420.788 406.565Z" fill="#00CBBD"/>
<path fill-rule="evenodd" clip-rule="evenodd" d="M426.598 435.917L404.42 391.218L409.493 388.702L431.671 433.4L426.598 435.917Z" fill="#007E8A"/>
<path fill-rule="evenodd" clip-rule="evenodd" d="M427.837 386.812L390.598 399.243L388.805 393.872L426.044 381.441L427.837 386.812Z" fill="#007E8A"/>
<path fill-rule="evenodd" clip-rule="evenodd" d="M413.908 404.212L403.791 409.424L419.452 440.368L442.582 430.046L413.908 404.212Z" fill="#007E8A"/>
<path fill-rule="evenodd" clip-rule="evenodd" d="M388.192 420.2L338.458 418.132L395.701 444.98L388.192 420.2Z" fill="#007E8A"/>
<path fill-rule="evenodd" clip-rule="evenodd" d="M448.974 434.803L453.463 428.163L447.05 422.372L432.61 409.361L448.974 434.803ZM328.114 430.728L334.382 433.251H334.445V423.509L325.631 421.854L328.114 430.728Z" fill="white"/>
<path fill-rule="evenodd" clip-rule="evenodd" d="M424.892 390.559L425.824 403.239L432.63 409.382L447.07 422.393L424.892 390.559ZM321.783 408.141L325.631 421.875L334.445 423.53V414.16L321.783 408.141Z" fill="#FB5058"/>
<path fill-rule="evenodd" clip-rule="evenodd" d="M425.824 403.239L413.866 404.149L438.071 428.205L395.909 443.367L334.424 414.14V423.509V433.251H334.361L363.407 444.917L386.682 475.593H421.355L448.973 434.824L432.63 409.382L425.824 403.239Z" fill="#FABE00"/>
<path fill-rule="evenodd" clip-rule="evenodd" d="M412.294 469.738L426.651 449.964L363.842 445.703L412.294 469.738Z" fill="#FB5058"/>
<path fill-rule="evenodd" clip-rule="evenodd" d="M447.887 461.285C445.112 460.475 442.444 460.774 439.711 462.317C436.955 463.872 435.096 466.122 434.076 469.185L434.075 469.186C433.048 472.265 433.208 475.036 434.478 477.674L434.48 477.679C435.757 480.345 437.694 482.001 440.438 482.803L440.442 482.804C443.179 483.609 445.845 483.302 448.59 481.755C451.356 480.175 453.215 477.937 454.254 474.876C455.279 471.797 455.114 469.023 453.824 466.427C453.816 466.412 453.809 466.397 453.802 466.382C452.548 463.745 450.614 462.088 447.887 461.285ZM436.927 457.386C440.938 455.122 445.179 454.595 449.478 455.851L449.483 455.853C453.781 457.117 456.974 459.879 458.906 463.929C460.915 467.985 461.077 472.316 459.625 476.673L459.62 476.686C458.136 481.067 455.362 484.41 451.391 486.676L451.379 486.682C447.382 488.938 443.141 489.498 438.847 488.237C434.517 486.971 431.325 484.201 429.373 480.126C427.418 476.064 427.247 471.762 428.703 467.396M436.927 457.386C432.939 459.637 430.164 463.011 428.703 467.395L436.927 457.386Z" fill="#450063"/>
<path fill-rule="evenodd" clip-rule="evenodd" d="M371.765 478.777L375.323 470.586L329.086 447.812L323.376 462.064L371.765 478.777Z" fill="#FB5058"/>
<path fill-rule="evenodd" clip-rule="evenodd" d="M439.084 470.524C438.588 472.013 438.651 473.42 439.292 474.744C439.933 476.088 440.947 476.977 442.353 477.391C443.739 477.805 445.125 477.639 446.471 476.875C447.815 476.109 448.725 474.992 449.221 473.523C449.718 472.035 449.656 470.627 449.015 469.283C448.374 467.939 447.36 467.07 445.953 466.656C444.547 466.242 443.16 466.408 441.815 467.173C440.512 467.918 439.581 469.035 439.084 470.524Z" fill="#007E8A"/>
<path fill-rule="evenodd" clip-rule="evenodd" d="M433.767 352.335L418.769 354.321L419.535 364.063L433.664 364.187L433.767 352.335Z" fill="white"/>
<path fill-rule="evenodd" clip-rule="evenodd" d="M385.731 379.534L375.055 382.74L377.187 390.207L388.213 388.077L385.731 379.534Z" fill="white"/>
<path fill-rule="evenodd" clip-rule="evenodd" d="M302.419 404.791L301.716 411.906L340.857 416.891L338.727 404.791H302.419Z" fill="#450063"/>
<path fill-rule="evenodd" clip-rule="evenodd" d="M282.889 347.785L283.944 407.831L339.865 407.563L338.768 347.785H282.889Z" fill="#00CCBE"/>
<path fill-rule="evenodd" clip-rule="evenodd" d="M282.889 347.785L264.125 351.012L265.656 407.852H283.944L282.889 347.785Z" fill="#1FA098"/>
<path fill-rule="evenodd" clip-rule="evenodd" d="M312.588 377.096C312.305 377.096 312.022 377.002 311.833 376.719C311.644 376.53 311.55 376.153 311.55 375.775C311.55 375.491 311.55 375.114 311.739 374.831C311.927 374.642 312.211 374.548 312.494 374.548C312.777 374.548 313.06 374.642 313.249 374.831C313.438 375.114 313.532 375.398 313.532 375.775C313.532 376.153 313.438 376.53 313.249 376.719C313.155 377.002 312.966 377.096 312.588 377.096ZM306.925 375.209C306.925 374.831 307.019 374.548 307.114 374.359C307.302 374.076 307.586 373.982 307.869 373.982C308.152 373.982 308.341 374.075 308.623 374.265C308.813 374.547 309.002 374.926 309.002 375.209C309.002 375.586 308.907 375.87 308.813 376.058C308.623 376.342 308.341 376.53 308.058 376.53C307.774 376.53 307.491 376.435 307.208 376.152C307.019 375.87 306.925 375.586 306.925 375.209ZM318.534 377.191L319.478 357.089L313.249 355.957L312.211 370.207L309.757 358.033L303.621 360.015L306.17 371.528L297.202 373.887L299.279 383.325L315.137 387.1L318.534 377.191Z" fill="white"/>
<path fill-rule="evenodd" clip-rule="evenodd" d="M295.786 391.63L295.976 397.954L323.254 397.387L323.16 390.969L295.786 391.63Z" fill="white"/>
</svg>
